<?xml version="1.0" encoding="UTF-8"?>
<svg xmlns="http://www.w3.org/2000/svg" version="1.1" viewBox="0 0 289.6 118.4">
  <defs>
    <style>
      .cls-1 {
        fill: #242b2e;
      }

      .cls-2 {
        fill: #ef233c;
      }
    </style>
  </defs>
  <!-- Generator: Adobe Illustrator 28.7.1, SVG Export Plug-In . SVG Version: 1.2.0 Build 142)  -->
  <g>
    <g id="onge_logo">
      <path class="cls-1" d="M.4,50.778C.4,27.223,18.099,8.252,44.581,8.252s44.31,18.971,44.31,42.526c0,23.809-17.826,42.781-44.31,42.781S.4,74.587.4,50.778ZM63.68,50.778c0-11.967-7.894-20.626-19.099-20.626-10.44,0-18.971,8.659-18.971,20.626,0,12.224,7.894,20.881,18.971,20.881,11.205,0,19.099-8.656,19.099-20.881Z"/>
      <path class="cls-1" d="M223.137,59.564c0-18.844,14.641-33.869,33.867-33.869,18.464,0,32.595,15.025,32.595,33.869,0,3.948-.508,7.512-.508,7.512h-43.165c1.912,6.112,7.641,8.404,13.879,8.404,5.475,0,11.332-1.654,15.408-3.946l7.766,15.66c-7.259,4.456-15.28,6.112-23.302,6.112-19.734,0-36.541-12.352-36.541-33.742ZM268.464,53.961c0-7.749-5.475-11.654-11.46-11.654-5.73,0-11.712,3.905-11.712,11.654h23.172Z"/>
      <path class="cls-2" d="M143.368,89.858c0-5.723,4.37-10.197,10.3-10.197,6.035,0,10.508,4.474,10.508,10.197s-4.474,10.197-10.508,10.197c-5.93,0-10.3-4.474-10.3-10.197Z"/>
      <path class="cls-1" d="M148.64,73.258v-20.696c0-19.099-6.366-28.777-22.791-28.777-6.495,0-13.624,1.784-19.609,8.786v-7.512h-17.279c4.474,7.419,7.047,16.155,7.047,25.718,0,12.565-4.325,23.756-11.668,32.345v6.999h23.173v-30.684c0-8.024,3.566-14.008,10.695-14.008,4.457,0,7.258,2.674,7.258,10.06v34.632h10.797c-.001-.089-.013-.175-.013-.264,0-7.963,5.15-14.503,12.39-16.601h0Z"/>
      <path class="cls-1" d="M225.943,32.602v-5.633h-21.898v7.257c-3.566-6.622-11.842-8.531-17.062-8.531-18.081,0-28.522,14.008-28.522,31.323,0,17.189,10.693,29.86,28.775,29.86,5.22,0,13.143-2.505,16.709-7.216,0,1.272-.382,3.978-.892,5.25-1.527,4.203-6.888,9.347-15.29,9.347-4.821,0-11.477-1.484-16.479-4.205-.068,6.232-3.331,11.562-8.29,14.552,5.965,3.564,15.381,6.142,27.299,6.142,21.984,0,31.633-11.502,34.588-25.657-5.606-6.854-8.862-15.607-8.862-25.527,0-10.425,3.731-19.801,9.924-26.962h0ZM192.458,68.222c-6.112,0-10.44-4.585-10.44-11.205s4.328-11.332,10.44-11.332,10.44,4.713,10.44,11.332-4.328,11.205-10.44,11.205Z"/>
    </g>
  </g>
</svg>